<svg width="64" height="64" viewBox="0 0 24 24" fill="white" xmlns="http://www.w3.org/2000/svg">
  <path d="M7 4H3V6H5.21L7.4 14.59C7.72 15.89 8.86 17 10.19 17H18V15H10.19C9.86 15 9.57 14.77 9.5 14.46L9.44 14.24L18.16 12.13C18.86 11.95 19.4 11.33 19.4 10.61V8C19.4 6.9 18.5 6 17.4 6H6.94L6.5 4.5C6.35 4.1 6 4 7 4ZM10 19C9.45 19 9 19.45 9 20C9 20.55 9.45 21 10 21C10.55 21 11 20.55 11 20C11 19.45 10.55 19 10 19ZM17 19C16.45 19 16 19.45 16 20C16 20.55 16.45 21 17 21C17.55 21 18 20.55 18 20C18 19.45 17.55 19 17 19Z"></path>
</svg>
